# xmcd
#
# Track frame offsets: 
#        150
#        20370
#        45537
#        63891
#        83539
#        105264
#        120869
#        138378
#        157157
#        180163
#        202549
#        222968
#        241984
#        273691
#        291571
#        323826
#        340278
#
# Disc length: 4856 seconds
#
# Revision: 5
# Processed by: cddbd v1.5.1PL0 Copyright (c) Steve Scherf et al.
# Submitted via: ExactAudioCopy v0.95a5
#
DISCID=e412f611
DTITLE=Various Artist - Black Classics Party [CD 1)
DYEAR=2000
DGENRE=Blues
TTITLE0=Vanilla Ice - Ice Ice Baby
TTITLE1=Ice-T - I'm Your Pusher
TTITLE2=A Tribe Called Quest - I Left My Wallet In El Segundo
TTITLE3=Bell Biv Devoe - Poison
TTITLE4=Jazzy Jeff and Fresh Prince - Girls Ain't Nothing But Trouble
TTITLE5=Salt'n'Pepa - Push It
TTITLE6=3rd Bass - Pop Goes The Weasel
TTITLE7=Timex Social Club - Rumors
TTITLE8=Oran 'Juice' Jones - The Rain
TTITLE9=Damian Dame - Exclusivity
TTITLE10=Ready For The World - Yo, That's A Lot A Body
TTITLE11=Eddie Murphy - Party All The Time
TTITLE12=Kurtis Blow - The Breaks
TTITLE13=Sugarhill Gang - Rapper's Delight
TTITLE14=Grandmaster Flash and The Furious Five - The Message
TTITLE15=The Rock Steady Crew - Hey You
TTITLE16=Afrika Bambaataa and The Soulsonic Force - Planet Rock
EXTD=
EXTT0=
EXTT1=
EXTT2=
EXTT3=
EXTT4=
EXTT5=
EXTT6=
EXTT7=
EXTT8=
EXTT9=
EXTT10=
EXTT11=
EXTT12=
EXTT13=
EXTT14=
EXTT15=
EXTT16=
PLAYORDER=
